<svg id="56e2affb-420d-47dc-80be-17cbe104c6b7" data-name="图层 1" xmlns="http://www.w3.org/2000/svg" viewBox="0 0 240 21.36"><defs><style>.\37 cc4e778-77b4-480d-84e5-2b61cba90e84{fill:#c2292e;}.\30 38334bd-8b5a-4778-94b2-cf06b743a0b5{font-size:17px;}.\30 38334bd-8b5a-4778-94b2-cf06b743a0b5,.\32 1bd8f4f-8368-496f-acf5-007b89953360,.\35 c585091-cbab-43c1-82f8-46422a61f49d,.c54e5a84-e566-4a04-a0c2-71c9c1ef0d04{fill:#fff;}.\30 38334bd-8b5a-4778-94b2-cf06b743a0b5,.\35 c585091-cbab-43c1-82f8-46422a61f49d{font-family:ZhenyanGB-Regular, ZhenyanGB;}.\35 c585091-cbab-43c1-82f8-46422a61f49d{font-size:15px;}.\34 2a021a5-e6ef-4f7a-b0e3-161eef9a8e8c{fill:#c33448;}.\38 009b008-c370-4b15-976a-41af5cc634d1{fill:none;stroke:#000;stroke-linecap:round;stroke-width:0.07px;}.\33 a1b694a-bf6e-4944-87c3-3ef8215b6b3b{stroke:#fff;stroke-width:0.03px;}.c54e5a84-e566-4a04-a0c2-71c9c1ef0d04{isolation:isolate;font-size:0.67px;font-family:DFLiuLi-Bd-HKP-BF, DFPLiuLi-B5;}</style></defs><title>未标题-111</title><g id="afb53395-d68f-41c3-b2b9-f973cb2cc8da" data-name="图层 2"><rect width="240" height="20"/></g><rect class="7cc4e778-77b4-480d-84e5-2b61cba90e84" x="29.17" y="0.64" width="55" height="18.72" rx="1.96" ry="1.96"/><text class="038334bd-8b5a-4778-94b2-cf06b743a0b5" transform="translate(31 15.02)">猫不问</text><text class="5c585091-cbab-43c1-82f8-46422a61f49d" transform="translate(96.25 15.13)">年轻人的养猫新生活</text><text class="5c585091-cbab-43c1-82f8-46422a61f49d" transform="translate(81.67 15.13)">·</text><g id="a96d0d53-a4c0-466e-bf02-471e34ad74af" data-name="源层 勿动"><circle class="42a021a5-e6ef-4f7a-b0e3-161eef9a8e8c" cx="16.47" cy="10" r="8.97"/><polyline class="42a021a5-e6ef-4f7a-b0e3-161eef9a8e8c" points="20.95 11.06 20.95 11.06 20.95 11.06"/><path d="M12.11,11.7a1.7,1.7,0,0,0,.6.84l0,0a2.16,2.16,0,0,0,.3.18,1.14,1.14,0,0,0,.26.09,1.63,1.63,0,0,0,.44.15v.09a.56.56,0,0,0,.54.64c.52,0,.56-.34.56-.58h3.25c0,.25,0,.62.55.58a.57.57,0,0,0,.55-.64V13a3.58,3.58,0,0,0,.8-.24h0a1.51,1.51,0,0,0,.88-1H12.11Z"/><path d="M20.9,10.37a7.87,7.87,0,0,0-.66-2h0a.06.06,0,0,1,0,0,5.67,5.67,0,0,0-.45-1.87.12.12,0,0,0-.15-.06l0,0c-.22.21-.76.69-1.22,1.19a.12.12,0,0,1-.13,0A8.57,8.57,0,0,0,15,7.5a.14.14,0,0,1-.09,0c-.14-.12-.63-.58-1.28-1.19a.12.12,0,0,0-.17,0v0A5.07,5.07,0,0,0,12.79,8a0,0,0,0,1,0,0,8.35,8.35,0,0,0-.76,2.3H20.9Z"/><path class="21bd8f4f-8368-496f-acf5-007b89953360" d="M20.9,10.37H12a3,3,0,0,0,.09,1.34h8.76A3.13,3.13,0,0,0,20.9,10.37Z"/><line class="8009b008-c370-4b15-976a-41af5cc634d1" x1="19.11" y1="9.57" x2="21.87" y2="8.83"/><line class="8009b008-c370-4b15-976a-41af5cc634d1" x1="19.11" y1="9.55" x2="21.87" y2="10.29"/><line class="8009b008-c370-4b15-976a-41af5cc634d1" x1="13.84" y1="9.55" x2="11.08" y2="10.29"/><line class="8009b008-c370-4b15-976a-41af5cc634d1" x1="13.84" y1="9.57" x2="11.08" y2="8.83"/><ellipse class="3a1b694a-bf6e-4944-87c3-3ef8215b6b3b" cx="16.47" cy="11.66" rx="0.22" ry="0.12"/><text class="c54e5a84-e566-4a04-a0c2-71c9c1ef0d04" transform="translate(16.18 12.7)">W</text><circle class="21bd8f4f-8368-496f-acf5-007b89953360" cx="14.76" cy="8.93" r="0.91"/><circle class="21bd8f4f-8368-496f-acf5-007b89953360" cx="18.14" cy="9" r="0.91"/><ellipse cx="14.75" cy="8.93" rx="0.25" ry="0.62"/><ellipse cx="18.13" cy="9" rx="0.25" ry="0.62"/><path class="42a021a5-e6ef-4f7a-b0e3-161eef9a8e8c" d="M16.57,11.68l1.18.42a.11.11,0,0,0,.14-.07v-.89a.11.11,0,0,0-.12-.11h0l-1.18.42a.11.11,0,0,0,0,.22Z"/><path class="42a021a5-e6ef-4f7a-b0e3-161eef9a8e8c" d="M16.37,11.46,15.2,11a.12.12,0,0,0-.15.07V12a.11.11,0,0,0,.11.11h0l1.17-.42a.12.12,0,0,0,.07-.15A.16.16,0,0,0,16.37,11.46Z"/><ellipse class="42a021a5-e6ef-4f7a-b0e3-161eef9a8e8c" cx="16.47" cy="11.57" rx="0.26" ry="0.2"/></g></svg>