<svg id="2b53fb76-f1f2-40e1-9f10-5e9c89717d57" data-name="图层 1" xmlns="http://www.w3.org/2000/svg" viewBox="0 0 240 21.36"><defs><style>.fb78661d-9d36-46af-aa19-a8cc60d5088f{font-size:17px;}.\32 fa8c456-2d2f-4879-b37f-13f6f2ef6b33,.a93022bc-224f-4b56-a928-ad1e5765ae52,.b4e90406-2743-43a0-913f-dce3cc7158c3,.fb78661d-9d36-46af-aa19-a8cc60d5088f{fill:#fff;}.a93022bc-224f-4b56-a928-ad1e5765ae52,.fb78661d-9d36-46af-aa19-a8cc60d5088f{font-family:ZhenyanGB-Regular, ZhenyanGB;}.a93022bc-224f-4b56-a928-ad1e5765ae52{font-size:15px;}.da29fee3-dfbb-4db3-ae87-83b217d2e4f9{fill:#c33448;}.\35 9e988a5-144f-4365-a3cf-eea8a9c15994{fill:none;stroke:#000;stroke-linecap:round;stroke-width:0.07px;}.\34 991734f-8fc0-4cd5-8e73-ac0ac3f1a79d{stroke:#fff;stroke-width:0.03px;}.b4e90406-2743-43a0-913f-dce3cc7158c3{isolation:isolate;font-size:0.67px;font-family:DFLiuLi-Bd-HKP-BF, DFPLiuLi-B5;}</style></defs><title>未标题-3</title><g id="568dacfe-ac4e-4fa3-a268-f133526d17b0" data-name="图层 2"><rect width="240" height="20"/></g><text class="fb78661d-9d36-46af-aa19-a8cc60d5088f" transform="translate(31 15.02)">猫不问</text><text class="a93022bc-224f-4b56-a928-ad1e5765ae52" transform="translate(96.25 15.13)">年轻人的养猫新生活</text><text class="a93022bc-224f-4b56-a928-ad1e5765ae52" transform="translate(81.67 15.13)">·</text><g id="93396cad-3012-46ae-87f2-86005bf8db88" data-name="源层 勿动"><circle class="da29fee3-dfbb-4db3-ae87-83b217d2e4f9" cx="16.47" cy="10" r="8.97"/><polyline class="da29fee3-dfbb-4db3-ae87-83b217d2e4f9" points="20.95 11.06 20.95 11.06 20.95 11.06"/><path d="M12.11,11.7a1.7,1.7,0,0,0,.6.84l0,0a2.16,2.16,0,0,0,.3.18,1.14,1.14,0,0,0,.26.09,1.63,1.63,0,0,0,.44.15v.09a.56.56,0,0,0,.54.64c.52,0,.56-.34.56-.58h3.25c0,.25,0,.62.55.58a.57.57,0,0,0,.55-.64V13a3.58,3.58,0,0,0,.8-.24h0a1.51,1.51,0,0,0,.88-1H12.11Z"/><path d="M20.9,10.37a7.87,7.87,0,0,0-.66-2h0a.06.06,0,0,1,0,0,5.67,5.67,0,0,0-.45-1.87.12.12,0,0,0-.15-.06l0,0c-.22.21-.76.69-1.22,1.19a.12.12,0,0,1-.13,0A8.57,8.57,0,0,0,15,7.5a.14.14,0,0,1-.09,0c-.14-.12-.63-.58-1.28-1.19a.12.12,0,0,0-.17,0v0A5.07,5.07,0,0,0,12.79,8a0,0,0,0,1,0,0,8.35,8.35,0,0,0-.76,2.3H20.9Z"/><path class="2fa8c456-2d2f-4879-b37f-13f6f2ef6b33" d="M20.9,10.37H12a3,3,0,0,0,.09,1.34h8.76A3.13,3.13,0,0,0,20.9,10.37Z"/><line class="59e988a5-144f-4365-a3cf-eea8a9c15994" x1="19.11" y1="9.57" x2="21.87" y2="8.83"/><line class="59e988a5-144f-4365-a3cf-eea8a9c15994" x1="19.11" y1="9.55" x2="21.87" y2="10.29"/><line class="59e988a5-144f-4365-a3cf-eea8a9c15994" x1="13.84" y1="9.55" x2="11.08" y2="10.29"/><line class="59e988a5-144f-4365-a3cf-eea8a9c15994" x1="13.84" y1="9.57" x2="11.08" y2="8.83"/><ellipse class="4991734f-8fc0-4cd5-8e73-ac0ac3f1a79d" cx="16.47" cy="11.66" rx="0.22" ry="0.12"/><text class="b4e90406-2743-43a0-913f-dce3cc7158c3" transform="translate(16.18 12.7)">W</text><circle class="2fa8c456-2d2f-4879-b37f-13f6f2ef6b33" cx="14.76" cy="8.93" r="0.91"/><circle class="2fa8c456-2d2f-4879-b37f-13f6f2ef6b33" cx="18.14" cy="9" r="0.91"/><ellipse cx="14.75" cy="8.93" rx="0.25" ry="0.62"/><ellipse cx="18.13" cy="9" rx="0.25" ry="0.62"/><path class="da29fee3-dfbb-4db3-ae87-83b217d2e4f9" d="M16.57,11.68l1.18.42a.11.11,0,0,0,.14-.07v-.89a.11.11,0,0,0-.12-.11h0l-1.18.42a.11.11,0,0,0,0,.22Z"/><path class="da29fee3-dfbb-4db3-ae87-83b217d2e4f9" d="M16.37,11.46,15.2,11a.12.12,0,0,0-.15.07V12a.11.11,0,0,0,.11.11h0l1.17-.42a.12.12,0,0,0,.07-.15A.16.16,0,0,0,16.37,11.46Z"/><ellipse class="da29fee3-dfbb-4db3-ae87-83b217d2e4f9" cx="16.47" cy="11.57" rx="0.26" ry="0.2"/></g></svg>